<?xml version="1.0" encoding="UTF-8" standalone="no" ?>
<!DOCTYPE svg PUBLIC "-//W3C//DTD SVG 1.1//EN" "http://www.w3.org/Graphics/SVG/1.1/DTD/svg11.dtd">
<svg xmlns="http://www.w3.org/2000/svg" xmlns:xlink="http://www.w3.org/1999/xlink" version="1.1" width="1280" height="1024" viewBox="0 0 1280 1024" xml:space="preserve">
<desc>Created with Fabric.js 3.6.3</desc>
<defs>
</defs>
<g transform="matrix(1.9692780337941629 0 0 1.9692780337941629 640.0153846153846 512.012312418764)" id="background-logo"  >
<rect style="stroke: none; stroke-width: 1; stroke-dasharray: none; stroke-linecap: butt; stroke-dashoffset: 0; stroke-linejoin: miter; stroke-miterlimit: 4; fill: rgb(255,255,255); fill-rule: nonzero; opacity: 1;"  paint-order="stroke"  x="-325" y="-260" rx="0" ry="0" width="650" height="520" />
</g>
<g transform="matrix(1.9692780337941629 0 0 1.9692780337941629 640.0153846153846 393.19341659586814)" id="logo-logo"  >
<g style=""  paint-order="stroke"   >
		<g transform="matrix(2.2250895462469646 0 0 -2.2250895462469646 0 0)"  >
<linearGradient id="SVGID_77_522704" gradientUnits="userSpaceOnUse" gradientTransform="matrix(112.41077 0 0 -112.41077 106.29462 130)"  x1="0" y1="0" x2="1" y2="0">
<stop offset="0%" style="stop-color:rgb(100,199,124);stop-opacity: 1"/>
<stop offset="40.1188%" style="stop-color:rgb(58,186,127);stop-opacity: 1"/>
<stop offset="100%" style="stop-color:rgb(53,90,151);stop-opacity: 1"/>
</linearGradient>
<path style="stroke: none; stroke-width: 1; stroke-dasharray: none; stroke-linecap: butt; stroke-dashoffset: 0; stroke-linejoin: miter; stroke-miterlimit: 4; fill: url(#SVGID_77_522704); fill-rule: nonzero; opacity: 1;"  paint-order="stroke"  transform=" translate(-162.5, -130)" d="m 106.295 130 c 0 -17.548 7.103 -33.416 18.598 -44.891 v 0 c 3.037 -3.037 6.377 -5.787 9.986 -8.136 v 0 c 4.125 -2.748 8.594 -5.003 13.328 -6.702 v 0 c 4.755 -1.718 9.777 -2.883 14.971 -3.417 v 0 c 2.158 -0.229 4.373 -0.344 6.587 -0.344 v 0 c 4.908 0 9.663 0.554 14.244 1.605 v 0 l 34.696 34.695 v 19.571 v 18.389 L 174.539 96.603 v 20.031 v 18.12 l -21.31 -21.328 c -4.257 4.239 -6.893 10.102 -6.893 16.574 v 0 c 0 12.908 10.521 23.429 23.429 23.429 v 0 c 6.473 0 12.336 -2.635 16.575 -6.874 v 0 l 14.149 14.149 l 14.168 14.169 c -11.476 11.513 -27.344 18.617 -44.892 18.617 v 0 c -35.058 0 -63.47 -28.432 -63.47 -63.49" stroke-linecap="round" />
</g>
		<g transform="matrix(2.2250895462469646 0 0 -2.2250895462469646 63.284884329583065 79.1119462720377)"  >
<linearGradient id="SVGID_78_522705" gradientUnits="userSpaceOnUse" gradientTransform="matrix(55.5275 0 0 -55.5275 163.1779 94.445602)"  x1="0" y1="0" x2="1" y2="0">
<stop offset="0%" style="stop-color:rgb(60,138,203);stop-opacity: 1"/>
<stop offset="100%" style="stop-color:rgb(54,66,159);stop-opacity: 1"/>
</linearGradient>
<path style="stroke: none; stroke-width: 1; stroke-dasharray: none; stroke-linecap: butt; stroke-dashoffset: 0; stroke-linejoin: miter; stroke-miterlimit: 4; fill: url(#SVGID_78_522705); fill-rule: nonzero; opacity: 1;"  paint-order="stroke"  transform=" translate(-190.9415, -94.44550000000001)" d="m 163.178 66.854 c 2.158 -0.229 4.373 -0.344 6.587 -0.344 v 0 c 4.908 0 9.663 0.554 14.244 1.605 v 0 l 34.696 34.695 v 19.571 z" stroke-linecap="round" />
</g>
		<g transform="matrix(2.2250895462469646 0 0 -2.2250895462469646 46.62897653115135 58.270645037115514)"  >
<linearGradient id="SVGID_79_522706" gradientUnits="userSpaceOnUse" gradientTransform="matrix(70.497795 0 0 -70.497795 148.2076 103.81155)"  x1="0" y1="0" x2="1" y2="0">
<stop offset="0%" style="stop-color:rgb(100,199,124);stop-opacity: 1"/>
<stop offset="40.1188%" style="stop-color:rgb(58,186,127);stop-opacity: 1"/>
<stop offset="100%" style="stop-color:rgb(53,90,151);stop-opacity: 1"/>
</linearGradient>
<path style="stroke: none; stroke-width: 1; stroke-dasharray: none; stroke-linecap: butt; stroke-dashoffset: 0; stroke-linejoin: miter; stroke-miterlimit: 4; fill: url(#SVGID_79_522706); fill-rule: nonzero; opacity: 1;"  paint-order="stroke"  transform=" translate(-183.456, -103.81200000000001)" d="M 174.539 96.603 L 148.207 70.271 c 4.755 -1.718 9.777 -2.883 14.971 -3.417 v 0 l 55.527 55.527 v 18.389 z" stroke-linecap="round" />
</g>
		<g transform="matrix(2.2250895462469646 0 0 -2.2250895462469646 -17.335672654810082 81.32146019146091)"  >
<linearGradient id="SVGID_80_522707" gradientUnits="userSpaceOnUse" gradientTransform="matrix(1 0 0 1 134.87900000000002 70.27100000000002)"  x1="0" y1="0" x2="0" y2="174">
<stop offset="0%" style="stop-color:rgb(23,234,217);stop-opacity: 1"/>
<stop offset="100%" style="stop-color:rgb(96,120,234);stop-opacity: 1"/>
</linearGradient>
<path style="stroke: none; stroke-width: 1; stroke-dasharray: none; stroke-linecap: butt; stroke-dashoffset: 0; stroke-linejoin: miter; stroke-miterlimit: 4; fill: url(#SVGID_80_522707); fill-rule: nonzero; opacity: 1;"  paint-order="stroke"  transform=" translate(-154.709, -93.45250000000001)" d="m 134.879 76.973 c 4.125 -2.748 8.594 -5.003 13.328 -6.702 v 0 l 26.332 26.332 v 20.031 z" stroke-linecap="round" />
</g>
		<g transform="matrix(2.2250895462469646 0 0 -2.2250895462469646 1.9970178677567105 -14.169370230500647)"  >
<linearGradient id="SVGID_81_522708" gradientUnits="userSpaceOnUse" gradientTransform="matrix(74.183105 0 0 -74.183105 126.3059 136.3681)"  x1="0" y1="0" x2="1" y2="0">
<stop offset="0%" style="stop-color:rgb(60,138,203);stop-opacity: 1"/>
<stop offset="100%" style="stop-color:rgb(54,66,159);stop-opacity: 1"/>
</linearGradient>
<path style="stroke: none; stroke-width: 1; stroke-dasharray: none; stroke-linecap: butt; stroke-dashoffset: 0; stroke-linejoin: miter; stroke-miterlimit: 4; fill: url(#SVGID_81_522708); fill-rule: nonzero; opacity: 1;"  paint-order="stroke"  transform=" translate(-163.3975, -136.368)" d="m 126.306 130 c 0 -11.991 4.869 -22.857 12.755 -30.724 v 0 l 14.168 14.15 c -4.257 4.239 -6.893 10.102 -6.893 16.574 v 0 c 0 12.908 10.521 23.429 23.429 23.429 v 0 c 6.473 0 12.336 -2.635 16.575 -6.874 v 0 l 14.149 14.149 c -7.867 7.887 -18.732 12.756 -30.724 12.756 v 0 c -23.963 0 -43.459 -19.496 -43.459 -43.46" stroke-linecap="round" />
</g>
		<g transform="matrix(2.2250895462469646 0 0 -2.2250895462469646 -4.503581241603854 -20.692220235323646)"  >
<linearGradient id="SVGID_82_522709" gradientUnits="userSpaceOnUse" gradientTransform="matrix(108.36269 0 0 -108.36269 106.29459 139.29915)"  x1="0" y1="0" x2="1" y2="0">
<stop offset="0%" style="stop-color:rgb(100,199,124);stop-opacity: 1"/>
<stop offset="40.1188%" style="stop-color:rgb(58,186,127);stop-opacity: 1"/>
<stop offset="100%" style="stop-color:rgb(53,90,151);stop-opacity: 1"/>
</linearGradient>
<path style="stroke: none; stroke-width: 1; stroke-dasharray: none; stroke-linecap: butt; stroke-dashoffset: 0; stroke-linejoin: miter; stroke-miterlimit: 4; fill: url(#SVGID_82_522709); fill-rule: nonzero; opacity: 1;"  paint-order="stroke"  transform=" translate(-160.476, -139.29950000000002)" d="m 106.295 130 c 0 -17.548 7.103 -33.416 18.598 -44.891 v 0 l 14.168 14.167 c -7.886 7.867 -12.755 18.733 -12.755 30.724 v 0 c 0 23.964 19.496 43.46 43.459 43.46 v 0 c 11.992 0 22.857 -4.869 30.724 -12.756 v 0 l 14.168 14.169 c -11.476 11.513 -27.344 18.617 -44.892 18.617 v 0 c -35.058 0 -63.47 -28.432 -63.47 -63.49" stroke-linecap="round" />
</g>
</g>
</g>
<g transform="matrix(1.9692780337941629 0 0 1.9692780337941629 640.1524071348258 763.4413277539304)" id="text-logo-path"  >
<path style="stroke: none; stroke-width: 0; stroke-dasharray: none; stroke-linecap: butt; stroke-dashoffset: 0; stroke-linejoin: miter; stroke-miterlimit: 4; fill: rgb(57,105,183); fill-rule: nonzero; opacity: 1;"  paint-order="stroke"  transform=" translate(-101.46000000000001, 19.369999999999997)" d="M 2.45 -19.37 L 2.45 -19.37 Q 2.45 -23.38 4.04 -27.05 Q 5.62 -30.73 8.38 -33.45 Q 11.13 -36.18 15.08 -37.81 Q 19.04 -39.44 23.49 -39.44 L 23.49 -39.44 Q 28.95 -39.44 33.4 -37.17 Q 37.85 -34.9 40.86 -30.95 L 40.86 -30.95 L 32.79 -26.86 Q 29.75 -30.67 23.38 -30.67 L 23.38 -30.67 Q 18.31 -30.67 15.08 -27.5 Q 11.86 -24.33 11.86 -19.48 L 11.86 -19.48 Q 11.86 -14.78 15.17 -11.41 Q 18.48 -8.04 23.49 -8.04 L 23.49 -8.04 Q 29.56 -8.04 33.01 -11.3 L 33.01 -11.3 L 33.01 -15.06 L 21.21 -15.06 L 21.21 -22.24 L 41.27 -22.24 L 41.27 -7.88 Q 41.14 -7.57 40.44 -6.76 Q 39.74 -5.96 38.17 -4.63 Q 36.6 -3.31 34.64 -2.16 Q 32.67 -1 29.71 -0.15 Q 26.75 0.7 23.55 0.7 L 23.55 0.7 Q 18.87 0.7 14.86 -0.97 Q 10.85 -2.64 8.17 -5.43 Q 5.48 -8.21 3.97 -11.83 Q 2.45 -15.45 2.45 -19.37 Z M 46.56 -13.55 L 46.56 -13.55 L 55.86 -13.55 Q 55.89 -13.3 55.98 -12.89 Q 56.08 -12.47 56.62 -11.41 Q 57.17 -10.35 57.99 -9.55 Q 58.81 -8.74 60.48 -8.07 Q 62.15 -7.4 64.29 -7.4 L 64.29 -7.4 Q 67.19 -7.4 68.59 -8.42 Q 70 -9.44 70 -10.83 L 70 -10.83 Q 70 -11.55 69.59 -12.13 Q 69.19 -12.72 68.65 -13.11 Q 68.1 -13.5 67.08 -13.87 Q 66.05 -14.25 65.27 -14.46 Q 64.49 -14.67 63.15 -15 L 63.15 -15 Q 57.61 -16.31 55 -17.4 L 55 -17.4 Q 47.15 -20.65 47.15 -27.14 L 47.15 -27.14 Q 47.15 -30.62 49.25 -33.44 Q 51.35 -36.27 54.95 -37.85 Q 58.56 -39.44 62.93 -39.44 L 62.93 -39.44 Q 66.55 -39.44 69.57 -38.27 Q 72.59 -37.1 74.46 -35.22 Q 76.34 -33.34 77.36 -31.07 Q 78.38 -28.81 78.38 -26.5 L 78.38 -26.5 L 69.08 -26.5 Q 69.08 -28.14 67.34 -29.6 Q 65.6 -31.06 62.82 -31.06 L 62.82 -31.06 Q 60.51 -31.06 58.56 -30.1 Q 56.61 -29.14 56.61 -27.58 L 56.61 -27.58 Q 56.61 -26.27 58.29 -25.51 Q 59.98 -24.74 64.63 -23.55 L 64.63 -23.55 Q 69.91 -22.18 72.25 -21.12 L 72.25 -21.12 Q 78.6 -18.26 79.27 -12.77 L 79.27 -12.77 Q 79.35 -12.08 79.35 -11.36 L 79.35 -11.36 Q 79.35 -5.87 75.02 -2.59 Q 70.69 0.7 63.79 0.7 L 63.79 0.7 Q 60.28 0.7 57.35 -0.21 Q 54.41 -1.11 52.46 -2.57 Q 50.52 -4.04 49.15 -5.93 Q 47.79 -7.82 47.18 -9.76 Q 46.56 -11.69 46.56 -13.55 Z M 95.91 -30.09 L 82.19 -30.09 L 82.19 -38.77 L 119.12 -38.77 L 119.12 -30.09 L 105.37 -30.09 L 105.37 0 L 95.91 0 L 95.91 -30.09 Z M 120.71 -19.37 L 120.71 -19.37 Q 120.71 -23.43 122.28 -27.14 Q 123.85 -30.84 126.52 -33.54 Q 129.2 -36.24 132.9 -37.84 Q 136.6 -39.44 140.69 -39.44 L 140.69 -39.44 Q 144.73 -39.44 148.44 -37.84 Q 152.16 -36.24 154.83 -33.54 Q 157.5 -30.84 159.1 -27.12 Q 160.7 -23.41 160.7 -19.37 L 160.7 -19.37 Q 160.7 -15.31 159.12 -11.59 Q 157.53 -7.88 154.84 -5.19 Q 152.16 -2.5 148.44 -0.9 Q 144.73 0.7 140.69 0.7 L 140.69 0.7 Q 135.24 0.7 130.63 -2 Q 126.02 -4.7 123.37 -9.31 Q 120.71 -13.92 120.71 -19.37 Z M 129.25 -19.37 L 129.25 -19.37 Q 129.25 -14.64 132.61 -11.31 Q 135.96 -7.99 140.69 -7.99 L 140.69 -7.99 Q 145.37 -7.99 148.71 -11.31 Q 152.05 -14.64 152.05 -19.37 L 152.05 -19.37 Q 152.05 -24.05 148.71 -27.39 Q 145.37 -30.73 140.69 -30.73 L 140.69 -30.73 Q 135.96 -30.73 132.61 -27.4 Q 129.25 -24.07 129.25 -19.37 Z M 176.2 0 L 166.85 0 L 166.85 -38.77 L 185.58 -38.77 Q 191.51 -38.77 195.45 -34.64 Q 199.39 -30.5 199.39 -24.21 L 199.39 -24.21 Q 199.39 -20.07 197.52 -16.73 Q 195.66 -13.39 192.49 -11.69 L 192.49 -11.69 L 200.47 0 L 188.84 0 L 183.02 -9.63 L 176.2 -9.63 L 176.2 0 Z M 176.2 -30.09 L 176.2 -18.29 L 184.22 -18.29 Q 186.61 -18.29 188.3 -20.03 Q 189.98 -21.76 189.98 -24.21 L 189.98 -24.21 Q 189.98 -26.61 188.31 -28.35 Q 186.64 -30.09 184.28 -30.09 L 184.28 -30.09 L 176.2 -30.09 Z" stroke-linecap="round" />
</g>
<g transform="matrix(1.9692780337941629 0 0 1.9692780337941629 639.5919898381188 860.4421346356507)" id="tagline-c9a11a9b-627e-4746-8ded-7e5a7e427c23-logo-path"  >
<path style="stroke: none; stroke-width: 0; stroke-dasharray: none; stroke-linecap: butt; stroke-dashoffset: 0; stroke-linejoin: miter; stroke-miterlimit: 4; fill: rgb(75,191,125); fill-rule: nonzero; opacity: 1;"  paint-order="stroke"  transform=" translate(-138.84500000000003, 15.395)" d="M 19.14 -18.1 Q 19.14 -16.86 18.28 -15.95 L 18.28 -15.95 Q 17.76 -15.44 17.76 -14.88 L 17.76 -14.88 Q 17.76 -14.36 18.19 -13.93 L 18.19 -13.93 L 18.28 -13.85 Q 19.14 -12.99 19.14 -11.7 L 19.14 -11.7 L 19.14 -4 Q 19.14 -2.75 18.28 -1.85 L 18.28 -1.85 L 16.9 -0.47 Q 16.04 0.39 14.79 0.39 L 14.79 0.39 L 3.87 0.39 Q 2.15 0.39 2.15 -1.33 L 2.15 -1.33 L 2.15 -28.77 Q 2.15 -30.49 3.87 -30.49 L 3.87 -30.49 L 14.79 -30.49 Q 16.04 -30.49 16.9 -29.58 L 16.9 -29.58 L 18.28 -28.21 Q 19.14 -27.35 19.14 -26.1 L 19.14 -26.1 L 19.14 -18.1 Z M 7.78 -26.57 Q 6.06 -26.57 6.06 -24.85 L 6.06 -24.85 L 6.06 -18.58 Q 6.06 -16.86 7.78 -16.86 L 7.78 -16.86 L 13.5 -16.86 Q 15.22 -16.86 15.22 -18.58 L 15.22 -18.58 L 15.27 -24.85 Q 15.27 -26.57 13.55 -26.57 L 13.55 -26.57 L 7.78 -26.57 Z M 15.27 -11.22 Q 15.27 -12.94 13.55 -12.94 L 13.55 -12.94 L 7.78 -12.94 Q 6.06 -12.94 6.06 -11.22 L 6.06 -11.22 L 6.06 -5.25 Q 6.06 -3.53 7.78 -3.53 L 7.78 -3.53 L 13.55 -3.53 Q 15.27 -3.53 15.27 -5.25 L 15.27 -5.25 L 15.27 -11.22 Z M 33.97 -19.14 Q 33.97 -20.86 35.69 -20.86 L 35.69 -20.86 L 36.16 -20.86 Q 37.88 -20.86 37.88 -19.14 L 37.88 -19.14 L 37.88 -4 Q 37.88 -2.75 37.02 -1.85 L 37.02 -1.85 L 35.65 -0.47 Q 34.79 0.39 33.54 0.39 L 33.54 0.39 L 28.25 0.39 Q 27 0.39 26.14 -0.47 L 26.14 -0.47 L 24.73 -1.89 Q 23.87 -2.75 23.87 -4 L 23.87 -4 L 23.87 -19.14 Q 23.87 -20.86 25.59 -20.86 L 25.59 -20.86 L 26.06 -20.86 Q 27.78 -20.86 27.78 -19.14 L 27.78 -19.14 L 27.78 -5.25 Q 27.78 -3.53 29.5 -3.53 L 29.5 -3.53 L 32.25 -3.53 Q 33.97 -3.53 33.97 -5.25 L 33.97 -5.25 L 33.97 -19.14 Z M 54.44 -14.71 Q 53.62 -14.71 53.17 -15.01 Q 52.72 -15.31 52.72 -15.87 L 52.72 -15.87 Q 52.72 -16.38 52.27 -16.68 Q 51.81 -16.99 51 -16.99 L 51 -16.99 L 48.25 -16.99 Q 46.53 -16.99 46.53 -15.27 L 46.53 -15.27 L 46.53 -13.5 Q 46.53 -11.78 48.25 -11.78 L 48.25 -11.78 L 52.25 -11.78 Q 53.49 -11.78 54.35 -10.92 L 54.35 -10.92 L 55.77 -9.5 Q 56.63 -8.64 56.63 -7.4 L 56.63 -7.4 L 56.63 -4 Q 56.63 -2.75 55.77 -1.89 L 55.77 -1.89 L 54.35 -0.47 Q 53.49 0.39 52.25 0.39 L 52.25 0.39 L 47 0.39 Q 45.75 0.39 44.89 -0.47 L 44.89 -0.47 L 43.47 -1.89 Q 42.61 -2.75 42.61 -4 L 42.61 -4 L 42.61 -4.04 Q 42.61 -5.76 44.33 -5.76 L 44.33 -5.76 L 44.81 -5.76 Q 45.62 -5.76 46.07 -5.46 Q 46.53 -5.16 46.53 -4.64 L 46.53 -4.64 Q 46.53 -4.13 46.98 -3.83 Q 47.43 -3.53 48.25 -3.53 L 48.25 -3.53 L 51 -3.53 Q 52.72 -3.53 52.72 -5.25 L 52.72 -5.25 L 52.72 -6.54 Q 52.72 -8.26 51 -8.26 L 51 -8.26 L 46.96 -8.26 Q 46.31 -8.26 45.84 -8.45 Q 45.37 -8.64 44.85 -9.07 L 44.85 -9.07 L 43.56 -10.19 Q 43.04 -10.62 42.83 -11.12 Q 42.61 -11.61 42.61 -12.3 L 42.61 -12.3 L 42.61 -16.51 Q 42.61 -17.16 42.83 -17.65 Q 43.04 -18.15 43.52 -18.62 L 43.52 -18.62 L 44.89 -20 Q 45.75 -20.86 47 -20.86 L 47 -20.86 L 52.25 -20.86 Q 53.54 -20.86 54.4 -20 L 54.4 -20 L 55.77 -18.62 Q 56.63 -17.76 56.63 -16.51 L 56.63 -16.51 L 56.63 -16.43 Q 56.63 -14.71 54.91 -14.71 L 54.91 -14.71 L 54.44 -14.71 Z M 62.01 -26.53 Q 62.65 -27.18 63.34 -27.18 L 63.34 -27.18 Q 64.03 -27.18 64.67 -26.53 L 64.67 -26.53 Q 65.32 -25.89 65.32 -25.2 L 65.32 -25.2 Q 65.32 -24.51 64.67 -23.87 L 64.67 -23.87 Q 64.03 -23.22 63.34 -23.22 L 63.34 -23.22 Q 62.65 -23.22 62.01 -23.87 L 62.01 -23.87 Q 61.36 -24.51 61.36 -25.2 L 61.36 -25.2 Q 61.36 -25.89 62.01 -26.53 L 62.01 -26.53 Z M 61.4 -19.14 Q 61.4 -20.86 63.12 -20.86 L 63.12 -20.86 L 63.55 -20.86 Q 65.27 -20.86 65.27 -19.14 L 65.27 -19.14 L 65.27 -1.33 Q 65.27 0.39 63.55 0.39 L 63.55 0.39 L 63.12 0.39 Q 61.4 0.39 61.4 -1.33 L 61.4 -1.33 L 61.4 -19.14 Z M 74.39 -1.29 Q 74.39 0.43 72.67 0.43 L 72.67 0.43 L 72.2 0.43 Q 70.48 0.43 70.48 -1.29 L 70.48 -1.29 L 70.48 -16.47 Q 70.48 -17.72 71.34 -18.58 L 71.34 -18.58 L 72.76 -20 Q 73.62 -20.86 74.86 -20.86 L 74.86 -20.86 L 80.2 -20.86 Q 81.44 -20.86 82.3 -19.95 L 82.3 -19.95 L 83.68 -18.58 Q 84.54 -17.72 84.54 -16.47 L 84.54 -16.47 L 84.54 -1.29 Q 84.54 0.43 82.82 0.43 L 82.82 0.43 L 82.39 0.43 Q 80.67 0.43 80.67 -1.29 L 80.67 -1.29 L 80.67 -15.22 Q 80.67 -16.94 78.95 -16.94 L 78.95 -16.94 L 76.11 -16.94 Q 74.39 -16.94 74.39 -15.22 L 74.39 -15.22 L 74.39 -1.29 Z M 103.24 -9.33 Q 103.24 -7.61 101.52 -7.61 L 101.52 -7.61 L 94.9 -7.61 Q 93.18 -7.61 93.18 -5.89 L 93.18 -5.89 L 93.18 -5.29 Q 93.18 -3.57 94.9 -3.57 L 94.9 -3.57 L 101.52 -3.57 Q 103.24 -3.57 103.24 -1.85 L 103.24 -1.85 L 103.24 -1.38 Q 103.24 0.34 101.52 0.34 L 101.52 0.34 L 93.61 0.34 Q 92.36 0.34 91.5 -0.56 L 91.5 -0.56 L 90.13 -1.94 Q 89.27 -2.8 89.27 -4.04 L 89.27 -4.04 L 89.27 -16.51 Q 89.27 -17.76 90.13 -18.62 L 90.13 -18.62 L 91.5 -20 Q 92.36 -20.86 93.61 -20.86 L 93.61 -20.86 L 98.9 -20.86 Q 100.15 -20.86 101.01 -20 L 101.01 -20 L 102.38 -18.62 Q 103.24 -17.76 103.24 -16.51 L 103.24 -16.51 L 103.24 -9.33 Z M 93.18 -12.77 Q 93.18 -11.05 94.9 -11.05 L 94.9 -11.05 L 97.61 -11.05 Q 99.33 -11.05 99.33 -12.77 L 99.33 -12.77 L 99.33 -15.27 Q 99.33 -16.99 97.61 -16.99 L 97.61 -16.99 L 94.9 -16.99 Q 93.18 -16.99 93.18 -15.27 L 93.18 -15.27 L 93.18 -12.77 Z M 119.37 -14.71 Q 118.55 -14.71 118.1 -15.01 Q 117.65 -15.31 117.65 -15.87 L 117.65 -15.87 Q 117.65 -16.38 117.2 -16.68 Q 116.75 -16.99 115.93 -16.99 L 115.93 -16.99 L 113.18 -16.99 Q 111.46 -16.99 111.46 -15.27 L 111.46 -15.27 L 111.46 -13.5 Q 111.46 -11.78 113.18 -11.78 L 113.18 -11.78 L 117.18 -11.78 Q 118.42 -11.78 119.28 -10.92 L 119.28 -10.92 L 120.7 -9.5 Q 121.56 -8.64 121.56 -7.4 L 121.56 -7.4 L 121.56 -4 Q 121.56 -2.75 120.7 -1.89 L 120.7 -1.89 L 119.28 -0.47 Q 118.42 0.39 117.18 0.39 L 117.18 0.39 L 111.93 0.39 Q 110.68 0.39 109.82 -0.47 L 109.82 -0.47 L 108.4 -1.89 Q 107.54 -2.75 107.54 -4 L 107.54 -4 L 107.54 -4.04 Q 107.54 -5.76 109.26 -5.76 L 109.26 -5.76 L 109.74 -5.76 Q 110.55 -5.76 111 -5.46 Q 111.46 -5.16 111.46 -4.64 L 111.46 -4.64 Q 111.46 -4.13 111.91 -3.83 Q 112.36 -3.53 113.18 -3.53 L 113.18 -3.53 L 115.93 -3.53 Q 117.65 -3.53 117.65 -5.25 L 117.65 -5.25 L 117.65 -6.54 Q 117.65 -8.26 115.93 -8.26 L 115.93 -8.26 L 111.89 -8.26 Q 111.24 -8.26 110.77 -8.45 Q 110.3 -8.64 109.78 -9.07 L 109.78 -9.07 L 108.49 -10.19 Q 107.97 -10.62 107.76 -11.12 Q 107.54 -11.61 107.54 -12.3 L 107.54 -12.3 L 107.54 -16.51 Q 107.54 -17.16 107.76 -17.65 Q 107.97 -18.15 108.45 -18.62 L 108.45 -18.62 L 109.82 -20 Q 110.68 -20.86 111.93 -20.86 L 111.93 -20.86 L 117.18 -20.86 Q 118.47 -20.86 119.33 -20 L 119.33 -20 L 120.7 -18.62 Q 121.56 -17.76 121.56 -16.51 L 121.56 -16.51 L 121.56 -16.43 Q 121.56 -14.71 119.84 -14.71 L 119.84 -14.71 L 119.37 -14.71 Z M 137.69 -14.71 Q 136.87 -14.71 136.42 -15.01 Q 135.97 -15.31 135.97 -15.87 L 135.97 -15.87 Q 135.97 -16.38 135.51 -16.68 Q 135.06 -16.99 134.25 -16.99 L 134.25 -16.99 L 131.49 -16.99 Q 129.77 -16.99 129.77 -15.27 L 129.77 -15.27 L 129.77 -13.5 Q 129.77 -11.78 131.49 -11.78 L 131.49 -11.78 L 135.49 -11.78 Q 136.74 -11.78 137.6 -10.92 L 137.6 -10.92 L 139.02 -9.5 Q 139.88 -8.64 139.88 -7.4 L 139.88 -7.4 L 139.88 -4 Q 139.88 -2.75 139.02 -1.89 L 139.02 -1.89 L 137.6 -0.47 Q 136.74 0.39 135.49 0.39 L 135.49 0.39 L 130.25 0.39 Q 129 0.39 128.14 -0.47 L 128.14 -0.47 L 126.72 -1.89 Q 125.86 -2.75 125.86 -4 L 125.86 -4 L 125.86 -4.04 Q 125.86 -5.76 127.58 -5.76 L 127.58 -5.76 L 128.05 -5.76 Q 128.87 -5.76 129.32 -5.46 Q 129.77 -5.16 129.77 -4.64 L 129.77 -4.64 Q 129.77 -4.13 130.23 -3.83 Q 130.68 -3.53 131.49 -3.53 L 131.49 -3.53 L 134.25 -3.53 Q 135.97 -3.53 135.97 -5.25 L 135.97 -5.25 L 135.97 -6.54 Q 135.97 -8.26 134.25 -8.26 L 134.25 -8.26 L 130.2 -8.26 Q 129.56 -8.26 129.09 -8.45 Q 128.61 -8.64 128.1 -9.07 L 128.1 -9.07 L 126.81 -10.19 Q 126.29 -10.62 126.08 -11.12 Q 125.86 -11.61 125.86 -12.3 L 125.86 -12.3 L 125.86 -16.51 Q 125.86 -17.16 126.08 -17.65 Q 126.29 -18.15 126.76 -18.62 L 126.76 -18.62 L 128.14 -20 Q 129 -20.86 130.25 -20.86 L 130.25 -20.86 L 135.49 -20.86 Q 136.78 -20.86 137.64 -20 L 137.64 -20 L 139.02 -18.62 Q 139.88 -17.76 139.88 -16.51 L 139.88 -16.51 L 139.88 -16.43 Q 139.88 -14.71 138.16 -14.71 L 138.16 -14.71 L 137.69 -14.71 Z M 166.75 -20.47 Q 165.03 -20.47 165.03 -22.19 L 165.03 -22.19 L 165.03 -25.59 Q 165.03 -27.31 163.31 -27.31 L 163.31 -27.31 L 157.55 -27.31 Q 155.83 -27.31 155.83 -25.59 L 155.83 -25.59 L 155.83 -18.75 Q 155.83 -17.03 157.55 -17.03 L 157.55 -17.03 L 164.6 -17.03 Q 165.85 -17.03 166.71 -16.17 L 166.71 -16.17 L 168.09 -14.79 Q 168.95 -13.93 168.95 -12.69 L 168.95 -12.69 L 168.95 -4 Q 168.95 -2.75 168.09 -1.85 L 168.09 -1.85 L 166.71 -0.47 Q 165.85 0.39 164.6 0.39 L 164.6 0.39 L 156.31 0.39 Q 155.06 0.39 154.2 -0.47 L 154.2 -0.47 L 152.78 -1.89 Q 151.92 -2.75 151.92 -4 L 151.92 -4 L 151.92 -8.21 Q 151.92 -9.93 153.64 -9.93 L 153.64 -9.93 L 154.11 -9.93 Q 155.83 -9.93 155.83 -8.21 L 155.83 -8.21 L 155.83 -5.25 Q 155.83 -3.53 157.55 -3.53 L 157.55 -3.53 L 163.31 -3.53 Q 165.03 -3.53 165.03 -5.25 L 165.03 -5.25 L 165.03 -11.44 Q 165.03 -13.16 163.31 -13.16 L 163.31 -13.16 L 156.31 -13.16 Q 155.02 -13.16 154.16 -14.02 L 154.16 -14.02 L 152.78 -15.39 Q 151.92 -16.25 151.92 -17.5 L 151.92 -17.5 L 151.92 -26.83 Q 151.92 -28.08 152.78 -28.98 L 152.78 -28.98 L 154.16 -30.36 Q 155.02 -31.22 156.26 -31.22 L 156.26 -31.22 L 164.6 -31.22 Q 165.85 -31.22 166.71 -30.32 L 166.71 -30.32 L 168.09 -28.94 Q 168.95 -28.08 168.95 -26.83 L 168.95 -26.83 L 168.95 -22.19 Q 168.95 -20.47 167.23 -20.47 L 167.23 -20.47 L 166.75 -20.47 Z M 186.45 -18.62 Q 187.31 -17.72 187.31 -16.47 L 187.31 -16.47 L 187.31 -4 Q 187.31 -2.75 186.45 -1.85 L 186.45 -1.85 L 185.07 -0.47 Q 184.21 0.39 182.97 0.39 L 182.97 0.39 L 177.63 0.39 Q 176.39 0.39 175.53 -0.47 L 175.53 -0.47 L 174.11 -1.89 Q 173.25 -2.75 173.25 -4 L 173.25 -4 L 173.25 -16.47 Q 173.25 -17.72 174.11 -18.58 L 174.11 -18.58 L 175.53 -20 Q 176.39 -20.86 177.63 -20.86 L 177.63 -20.86 L 182.97 -20.86 Q 184.21 -20.86 185.07 -20 L 185.07 -20 L 186.45 -18.62 Z M 183.4 -15.22 Q 183.4 -16.94 181.68 -16.94 L 181.68 -16.94 L 178.88 -16.94 Q 177.16 -16.94 177.16 -15.22 L 177.16 -15.22 L 177.16 -5.25 Q 177.16 -3.53 178.88 -3.53 L 178.88 -3.53 L 181.68 -3.53 Q 183.4 -3.53 183.4 -5.25 L 183.4 -5.25 L 183.4 -15.22 Z M 191.61 -28.81 Q 191.61 -30.53 193.33 -30.53 L 193.33 -30.53 L 193.76 -30.53 Q 195.48 -30.53 195.48 -28.81 L 195.48 -28.81 L 195.48 -1.33 Q 195.48 0.39 193.76 0.39 L 193.76 0.39 L 193.33 0.39 Q 191.61 0.39 191.61 -1.33 L 191.61 -1.33 L 191.61 -28.81 Z M 210.31 -19.14 Q 210.31 -20.86 212.03 -20.86 L 212.03 -20.86 L 212.51 -20.86 Q 214.23 -20.86 214.23 -19.14 L 214.23 -19.14 L 214.23 -4 Q 214.23 -2.75 213.37 -1.85 L 213.37 -1.85 L 211.99 -0.47 Q 211.13 0.39 209.88 0.39 L 209.88 0.39 L 204.59 0.39 Q 203.35 0.39 202.49 -0.47 L 202.49 -0.47 L 201.07 -1.89 Q 200.21 -2.75 200.21 -4 L 200.21 -4 L 200.21 -19.14 Q 200.21 -20.86 201.93 -20.86 L 201.93 -20.86 L 202.4 -20.86 Q 204.12 -20.86 204.12 -19.14 L 204.12 -19.14 L 204.12 -5.25 Q 204.12 -3.53 205.84 -3.53 L 205.84 -3.53 L 208.59 -3.53 Q 210.31 -3.53 210.31 -5.25 L 210.31 -5.25 L 210.31 -19.14 Z M 228.85 -3.53 Q 230.57 -3.53 230.57 -1.81 L 230.57 -1.81 L 230.57 -1.33 Q 230.57 0.39 228.85 0.39 L 228.85 0.39 L 225.88 0.39 Q 224.63 0.39 223.77 -0.47 L 223.77 -0.47 L 222.35 -1.89 Q 221.49 -2.75 221.49 -4 L 221.49 -4 L 221.49 -15.27 Q 221.49 -16.08 221.06 -16.53 Q 220.63 -16.99 219.82 -16.99 L 219.82 -16.99 Q 218.1 -16.99 218.1 -18.71 L 218.1 -18.71 L 218.1 -19.14 Q 218.1 -19.95 218.55 -20.4 Q 219 -20.86 219.82 -20.86 L 219.82 -20.86 Q 220.63 -20.86 221.06 -21.31 Q 221.49 -21.76 221.49 -22.58 L 221.49 -22.58 L 221.49 -24.12 Q 221.49 -25.84 223.21 -25.84 L 223.21 -25.84 L 223.69 -25.84 Q 225.41 -25.84 225.41 -24.12 L 225.41 -24.12 L 225.41 -22.58 Q 225.41 -20.86 227.13 -20.86 L 227.13 -20.86 L 228.85 -20.86 Q 230.57 -20.86 230.57 -19.14 L 230.57 -19.14 L 230.57 -18.71 Q 230.57 -16.99 228.85 -16.99 L 228.85 -16.99 L 227.13 -16.99 Q 225.41 -16.99 225.41 -15.27 L 225.41 -15.27 L 225.41 -5.25 Q 225.41 -3.53 227.13 -3.53 L 227.13 -3.53 L 228.85 -3.53 Z M 234.65 -26.53 Q 235.3 -27.18 235.98 -27.18 L 235.98 -27.18 Q 236.67 -27.18 237.32 -26.53 L 237.32 -26.53 Q 237.96 -25.89 237.96 -25.2 L 237.96 -25.2 Q 237.96 -24.51 237.32 -23.87 L 237.32 -23.87 Q 236.67 -23.22 235.98 -23.22 L 235.98 -23.22 Q 235.3 -23.22 234.65 -23.87 L 234.65 -23.87 Q 234.01 -24.51 234.01 -25.2 L 234.01 -25.2 Q 234.01 -25.89 234.65 -26.53 L 234.65 -26.53 Z M 234.05 -19.14 Q 234.05 -20.86 235.77 -20.86 L 235.77 -20.86 L 236.2 -20.86 Q 237.92 -20.86 237.92 -19.14 L 237.92 -19.14 L 237.92 -1.33 Q 237.92 0.39 236.2 0.39 L 236.2 0.39 L 235.77 0.39 Q 234.05 0.39 234.05 -1.33 L 234.05 -1.33 L 234.05 -19.14 Z M 255.89 -18.62 Q 256.75 -17.72 256.75 -16.47 L 256.75 -16.47 L 256.75 -4 Q 256.75 -2.75 255.89 -1.85 L 255.89 -1.85 L 254.52 -0.47 Q 253.66 0.39 252.41 0.39 L 252.41 0.39 L 247.08 0.39 Q 245.83 0.39 244.97 -0.47 L 244.97 -0.47 L 243.55 -1.89 Q 242.69 -2.75 242.69 -4 L 242.69 -4 L 242.69 -16.47 Q 242.69 -17.72 243.55 -18.58 L 243.55 -18.58 L 244.97 -20 Q 245.83 -20.86 247.08 -20.86 L 247.08 -20.86 L 252.41 -20.86 Q 253.66 -20.86 254.52 -20 L 254.52 -20 L 255.89 -18.62 Z M 252.84 -15.22 Q 252.84 -16.94 251.12 -16.94 L 251.12 -16.94 L 248.33 -16.94 Q 246.61 -16.94 246.61 -15.22 L 246.61 -15.22 L 246.61 -5.25 Q 246.61 -3.53 248.33 -3.53 L 248.33 -3.53 L 251.12 -3.53 Q 252.84 -3.53 252.84 -5.25 L 252.84 -5.25 L 252.84 -15.22 Z M 265.4 -1.29 Q 265.4 0.43 263.68 0.43 L 263.68 0.43 L 263.2 0.43 Q 261.48 0.43 261.48 -1.29 L 261.48 -1.29 L 261.48 -16.47 Q 261.48 -17.72 262.34 -18.58 L 262.34 -18.58 L 263.76 -20 Q 264.62 -20.86 265.87 -20.86 L 265.87 -20.86 L 271.2 -20.86 Q 272.45 -20.86 273.31 -19.95 L 273.31 -19.95 L 274.68 -18.58 Q 275.54 -17.72 275.54 -16.47 L 275.54 -16.47 L 275.54 -1.29 Q 275.54 0.43 273.82 0.43 L 273.82 0.43 L 273.39 0.43 Q 271.67 0.43 271.67 -1.29 L 271.67 -1.29 L 271.67 -15.22 Q 271.67 -16.94 269.95 -16.94 L 269.95 -16.94 L 267.12 -16.94 Q 265.4 -16.94 265.4 -15.22 L 265.4 -15.22 L 265.4 -1.29 Z" stroke-linecap="round" />
</g>
</svg>